HIERARCHY
ROOT Hips
{
  OFFSET 0 0 0
  CHANNELS 6 Xposition Yposition Zposition Zrotation Yrotation Xrotation
  JOINT LeftThigh
  {
    OFFSET 8.409438 0 -5.917753
    CHANNELS 3 Zrotation Yrotation Xrotation
    JOINT LeftLeg
    {
      OFFSET 0 0 -42.358652
      CHANNELS 3 Zrotation Yrotation Xrotation
      JOINT LeftFoot
      {
        OFFSET 0 0 -39.357303
        CHANNELS 3 Zrotation Yrotation Xrotation
      }
    }
  }
  JOINT RightThigh
  {
    OFFSET -8.409438 0 -5.917753
    CHANNELS 3 Zrotation Yrotation Xrotation
    JOINT RightLeg
    {
      OFFSET 0 0 -42.358652
      CHANNELS 3 Zrotation Yrotation Xrotation
      JOINT RightFoot
      {
        OFFSET 0 0 -39.357303
        CHANNELS 3 Zrotation Yrotation Xrotation
      }
    }
  }
  JOINT SpineLow
  {
    OFFSET 0 0 4.719101
    CHANNELS 3 Zrotation Yrotation Xrotation
    JOINT SpineMid
    {
      OFFSET 0 0 12.899191
      CHANNELS 3 Zrotation Yrotation Xrotation
      JOINT Chest
      {
        OFFSET 0 0 12.899191
        CHANNELS 3 Zrotation Yrotation Xrotation
        JOINT LeftShoulder
        {
          OFFSET 7.550562 1.41573 9.438202
          CHANNELS 3 Zrotation Yrotation Xrotation
          JOINT LeftArm
          {
            OFFSET 9.155056 0 4.247191
            CHANNELS 3 Zrotation Yrotation Xrotation
            JOINT LeftForearm
            {
              OFFSET 0 0 25.771955
              CHANNELS 3 Zrotation Yrotation Xrotation
              JOINT LeftHand
              {
                OFFSET 0 0 25.197169
                CHANNELS 3 Zrotation Yrotation Xrotation
              }
            }
          }
        }
        JOINT RightShoulder
        {
          OFFSET -7.550562 1.41573 9.438202
          CHANNELS 3 Zrotation Yrotation Xrotation
          JOINT RightArm
          {
            OFFSET -9.155056 0 4.247191
            CHANNELS 3 Zrotation Yrotation Xrotation
            JOINT RightForearm
            {
              OFFSET 0 0 -25.771955
              CHANNELS 3 Zrotation Yrotation Xrotation
              JOINT RightHand
              {
                OFFSET 0 0 -25.197169
                CHANNELS 3 Zrotation Yrotation Xrotation
              }
            }
          }
        }
        JOINT Neck
        {
          OFFSET 0 0 15.101124
          CHANNELS 3 Zrotation Yrotation Xrotation
          JOINT Head
          {
            OFFSET 0 0 11.325843
            CHANNELS 3 Zrotation Yrotation Xrotation
            End Site
            {
              OFFSET 0 0 14.157303
            }
          }
        }
      }
    }
  }
}
MOTION
Frames: 8
Frame Time: 0.0
0.0  101.685394  0.0  -101.26909  51.202912  179.103065  45.052736  -32.903496  -53.304872  -4.612414  12.876782  32.11741  -6.92821  -3.985677  -5.212848  -18.382886  40.251333  -53.660096  5.929727  -2.613624  36.556635  -7.068818  -4.1489  -13.765617  -1.865779  -2.095518  3.376103  -5.39254  -5.45038  9.40365  -5.392539  -5.450379  9.40365  -17.032321  30.202189  6.050223  126.172382  46.104851  -170.671106  -25.408692  -7.432613  91.297638  48.604686  -10.365567  6.118216  2.119639  -1.285045  18.618538  56.994183  43.389603  38.848523  -29.579199  -10.949775  -127.446263  49.038136  30.871904  9.887083  -6.510734  -17.107596  14.778861  -4.424082  -12.996897  10.814433  
0.0  101.685394  0.0  -101.159957  51.37223  178.742319  47.047985  -32.236237  -54.275697  -4.357708  13.086204  33.57899  -9.319886  -3.698627  -5.712509  -16.270211  41.499264  -53.216812  5.634126  -3.466128  39.544173  -8.436453  -4.070335  -13.803688  -2.384334  -2.100222  3.286658  -6.803163  -5.397826  9.200063  -6.803162  -5.397825  9.200062  -15.114421  31.017327  6.841682  124.718931  47.088634  -171.445181  -25.940968  -7.482555  91.333914  48.357576  -11.163544  6.130492  3.749347  -0.72789  20.052893  56.589107  43.073865  38.277162  -29.539986  -10.79043  -127.640623  49.41473  31.075727  9.728428  -5.428159  -16.347199  15.513914  -3.620399  -12.407213  11.407362  
0.0  101.685394  0.0  -100.709837  51.491862  178.852792  48.518254  -31.945932  -55.075555  -3.658557  13.134083  35.049259  -11.071303  -3.605102  -5.899037  -15.254233  41.874376  -53.3574  6.003245  -4.806768  41.904656  -10.209336  -4.006737  -13.772821  -2.880453  -2.139345  3.150848  -8.154221  -5.451183  8.872271  -8.154221  -5.451183  8.872271  -13.184486  32.106522  7.658608  123.327632  48.064558  -172.467462  -26.440262  -7.882511  91.366262  48.157066  -11.978484  6.188444  5.437331  -0.039124  21.536215  56.002007  42.701913  37.744138  -29.517188  -10.721821  -127.785766  49.642338  31.368504  9.339168  -4.369969  -15.475069  16.296157  -2.837698  -11.732179  12.03423  
0.0  101.685394  0.0  -99.565437  51.536511  179.946346  49.157425  -31.302097  -55.804667  -3.081503  12.55136  36.622591  -12.635987  -3.364308  -6.291794  -15.545869  41.343512  -54.680079  6.640349  -6.43127  43.71222  -12.003893  -3.927139  -13.548543  -3.224934  -2.192031  3.000757  -9.091724  -5.568405  8.496768  -9.091725  -5.568405  8.496768  -11.749287  32.84721  8.148867  121.944489  48.936698  -173.486413  -26.901782  -8.489964  91.350887  48.053532  -12.794063  6.239268  6.492579  0.471268  22.712068  55.497921  42.487583  37.274176  -29.481438  -10.81477  -127.849408  49.882981  31.683184  8.810273  -3.509829  -14.767905  16.883639  -2.203221  -11.182475  12.505535  
0.0  101.685394  0.0  -97.696115  51.601945  -178.205744  49.476814  -31.360041  -55.750432  -2.585974  12.380512  37.349563  -13.299193  -3.199619  -6.363132  -16.816617  40.19873  -57.211551  7.169461  -8.117616  45.534616  -13.5025  -3.829371  -13.184636  -3.34698  -2.237683  2.865275  -9.421027  -5.696256  8.143405  -9.421026  -5.696256  8.143405  -11.208355  33.118753  8.373668  120.600332  49.70133  -174.319677  -27.299014  -9.106417  91.305104  48.061557  -13.568643  6.20416  6.607941  0.75309  23.435257  54.683234  42.224318  36.835199  -29.34925  -10.976575  -127.98276  50.229076  31.983327  8.335399  -3.147853  -14.306713  17.22222  -1.939334  -10.828432  12.773912  
0.0  101.685394  0.0  -95.219856  51.707182  -175.779923  49.835653  -31.347703  -55.396643  -2.861384  12.502007  37.623645  -14.306643  -2.813205  -6.422315  -18.47139  38.592814  -60.585519  6.82017  -9.084951  48.000866  -14.047095  -3.797669  -12.906891  -3.307983  -2.254621  2.74889  -9.307184  -5.763972  7.824781  -9.307184  -5.763971  7.824781  -11.218582  33.030379  8.609097  119.518941  50.46126  -174.730362  -27.524222  -9.712658  91.286448  48.161489  -14.274965  6.025562  6.039652  0.807533  23.832642  55.329692  42.741449  36.449443  -30.141532  -11.813554  -126.50502  50.597332  32.160675  8.017567  -3.123856  -14.057065  17.329116  -1.926801  -10.641037  12.857981  
0.0  101.685394  0.0  -92.20843  51.790626  -173.031343  50.147092  -31.283346  -54.547006  -3.922906  12.904948  37.34267  -13.574044  -2.560271  -6.210779  -19.856341  36.57794  -64.016294  5.773955  -8.816295  51.119903  -13.581388  -4.063621  -12.820849  -3.217527  -2.253233  2.704336  -9.05591  -5.777385  7.695285  -9.055911  -5.777385  7.695286  -11.388665  32.8479  8.665209  118.757147  51.254827  -174.791266  -27.601111  -10.275229  91.320832  48.30815  -14.952921  5.720603  5.291699  0.828463  23.872103  54.346738  42.574304  35.924928  -30.187093  -11.982236  -126.495708  50.880082  32.252827  7.854141  -3.066046  -13.860776  17.170649  -1.893461  -10.491091  12.743951  
0.0  101.685394  0.0  -88.862718  51.844666  -170.303671  50.138975  -31.554185  -53.186275  -5.233606  13.474278  36.782388  -13.137268  -2.157642  -5.519076  -20.588258  34.160429  -66.909041  4.487638  -7.195184  54.5334  -12.472992  -4.546262  -12.754123  -3.205984  -2.236481  2.755074  -9.026287  -5.726101  7.83049  -9.026287  -5.7261  7.830489  -11.126997  32.653025  8.336019  118.313232  51.812428  -174.526233  -27.589801  -10.784576  91.433555  48.484698  -15.603975  5.309964  5.093697  0.981711  23.620197  53.38379  42.436289  35.290971  -30.106329  -12.086395  -126.542165  51.164936  32.311603  7.981197  -2.613833  -13.54884  16.838555  -1.572779  -10.242461  12.510648  
